<?xml version="1.0" encoding="UTF-8" standalone="no"?>
<svg width="200" height="200" viewBox="0 0 200 200" fill="none" xmlns="http://www.w3.org/2000/svg">
  <!-- Hintergrund-Kreis -->
  <circle cx="100" cy="100" r="95" fill="#42b983" fill-opacity="0.2" stroke="#42b983" stroke-width="5"/>
  
  <!-- Schiffscontainer-Symbol -->
  <rect x="50" y="65" width="100" height="70" rx="5" fill="#42b983" stroke="#42b983" stroke-width="2"/>
  
  <!-- Container-Linien -->
  <line x1="50" y1="85" x2="150" y2="85" stroke="#FFFFFF" stroke-width="2" stroke-linecap="round"/>
  <line x1="50" y1="105" x2="150" y2="105" stroke="#FFFFFF" stroke-width="2" stroke-linecap="round"/>
  <line x1="50" y1="125" x2="150" y2="125" stroke="#FFFFFF" stroke-width="2" stroke-linecap="round"/>
  
  <!-- Vertikale Linien -->
  <line x1="70" y1="65" x2="70" y2="135" stroke="#FFFFFF" stroke-width="2" stroke-linecap="round"/>
  <line x1="90" y1="65" x2="90" y2="135" stroke="#FFFFFF" stroke-width="2" stroke-linecap="round"/>
  <line x1="110" y1="65" x2="110" y2="135" stroke="#FFFFFF" stroke-width="2" stroke-linecap="round"/>
  <line x1="130" y1="65" x2="130" y2="135" stroke="#FFFFFF" stroke-width="2" stroke-linecap="round"/>
  
  <!-- Kreise für Kubernetes-Anspielung -->
  <circle cx="70" cy="50" r="10" fill="#42b983"/>
  <circle cx="100" cy="40" r="8" fill="#42b983"/>
  <circle cx="130" cy="50" r="10" fill="#42b983"/>
  
  <!-- Verbindungslinien -->
  <line x1="70" y1="50" x2="100" y2="40" stroke="#42b983" stroke-width="2"/>
  <line x1="100" y1="40" x2="130" y2="50" stroke="#42b983" stroke-width="2"/>
  <line x1="70" y1="50" x2="70" y2="65" stroke="#42b983" stroke-width="2"/>
  <line x1="130" y1="50" x2="130" y2="65" stroke="#42b983" stroke-width="2"/>
  <line x1="100" y1="40" x2="100" y2="65" stroke="#42b983" stroke-width="2"/>
</svg> 