<?xml version="1.0" standalone="no"?>
<!DOCTYPE svg PUBLIC "-//W3C//DTD SVG 20010904//EN"
 "http://www.w3.org/TR/2001/REC-SVG-20010904/DTD/svg10.dtd">
<svg version="1.0" xmlns="http://www.w3.org/2000/svg"
 width="1024.000000pt" height="1024.000000pt" viewBox="0 0 1024.000000 1024.000000"
 preserveAspectRatio="xMidYMid meet">

<g transform="translate(0.000000,1024.000000) scale(0.100000,-0.100000)"
fill="#000000" stroke="none">
<path d="M4956 8439 c-526 -73 -914 -426 -1046 -952 -87 -347 -56 -721 84
-1012 152 -318 376 -535 723 -703 108 -52 115 -57 83 -59 -210 -14 -472 -71
-643 -139 -266 -106 -491 -252 -698 -451 -130 -126 -205 -216 -305 -368 -313
-476 -499 -1056 -618 -1925 -21 -153 -84 -701 -112 -974 l-7 -69 34 23 c171
119 740 570 992 787 551 474 1045 970 1332 1338 183 234 329 490 394 692 42
128 65 294 58 416 -4 72 -2 95 6 90 59 -33 148 -107 213 -177 380 -406 428
-1048 125 -1671 -110 -226 -239 -408 -400 -564 -83 -80 -80 -80 24 0 349 267
684 621 894 944 175 269 281 540 326 840 20 131 23 391 5 515 -50 354 -194
644 -445 896 -141 142 -263 235 -475 363 -85 52 -178 111 -206 132 -255 188
-286 502 -70 727 74 78 139 123 273 191 82 41 303 123 418 155 21 6 -30 0 -87
-9 -62 -11 -138 62 -138 132 0 50 16 81 57 109 133 91 454 286 483 294 19 5
50 12 68 17 l33 8 -108 66 c-295 181 -530 275 -808 324 -109 20 -365 27 -459
14z m612 -449 c117 -71 82 -252 -51 -267 -88 -10 -158 52 -159 141 -2 111 117
183 210 126z"/>
<path d="M6680 8048 c-146 -5 -281 -12 -300 -17 -25 -7 -16 -8 35 -3 39 4 296
7 573 7 277 0 486 3 465 7 -65 11 -495 14 -773 6z"/>
<path d="M7555 8002 c40 -19 78 -48 113 -86 28 -32 52 -53 52 -48 0 33 -169
162 -212 162 -7 0 14 -13 47 -28z"/>
<path d="M7660 7814 c-8 -2 -85 -13 -170 -26 -85 -12 -148 -24 -139 -26 9 -2
61 4 115 13 55 9 124 18 154 22 30 3 57 7 59 9 7 6 -3 10 -19 8z"/>
<path d="M7220 7749 c-135 -22 -455 -81 -459 -85 -8 -7 23 -4 109 12 47 8 171
30 275 49 105 18 177 33 160 33 -16 0 -55 -4 -85 -9z"/>
<path d="M6545 7627 c-82 -18 -143 -33 -135 -34 8 -2 89 12 180 31 91 19 152
34 135 34 -16 0 -97 -14 -180 -31z"/>
<path d="M6290 7575 c-30 -7 -46 -13 -35 -13 11 -1 47 5 80 12 33 8 49 14 35
14 -14 0 -50 -6 -80 -13z"/>
<path d="M6145 7544 c-27 -7 -63 -16 -79 -19 -15 -3 -26 -8 -23 -11 5 -6 187
35 187 42 0 7 -32 2 -85 -12z"/>
<path d="M5998 7503 c7 -3 16 -2 19 1 4 3 -2 6 -13 5 -11 0 -14 -3 -6 -6z"/>
<path d="M3268 1883 c7 -3 16 -2 19 1 4 3 -2 6 -13 5 -11 0 -14 -3 -6 -6z"/>
</g>
</svg>
